<svg width="32" height="32" viewBox="0 0 32 32" fill="none" xmlns="http://www.w3.org/2000/svg">
<path d="M18.2997 11.2998C18.0209 9.83331 17.2058 8.52331 16.0133 7.62543C14.8208 6.72754 13.3365 6.30622 11.8501 6.44368C10.3637 6.58113 8.98187 7.26751 7.97425 8.36885C6.96662 9.47019 6.40553 10.9075 6.40046 12.4002C6.40024 13.8008 6.88998 15.1573 7.78483 16.2347C8.67968 17.3121 9.92325 18.0425 11.3001 18.2994C11.2393 18.6914 11.2061 19.0918 11.2005 19.5006C9.42438 19.1949 7.82743 18.2345 6.72488 16.8089C5.62232 15.3833 5.09427 13.5962 5.24497 11.8003C5.39566 10.0044 6.21416 8.33028 7.53888 7.10838C8.8636 5.88648 10.5983 5.20562 12.4005 5.2002C14.1022 5.19993 15.7489 5.80241 17.0487 6.90075C18.3485 7.99909 19.2172 9.5223 19.5009 11.2002C19.0929 11.2058 18.6917 11.239 18.2997 11.2998ZM17.6265 16.7754C17.5138 16.6627 17.361 16.5994 17.2017 16.5994C17.0423 16.5994 16.8895 16.6627 16.7769 16.7754C16.6642 16.8881 16.6009 17.0409 16.6009 17.2002C16.6009 17.3595 16.6642 17.5123 16.7769 17.625L18.7521 19.6002L16.7757 21.5754C16.663 21.6881 16.5997 21.8409 16.5997 22.0002C16.5997 22.1595 16.663 22.3123 16.7757 22.425C16.8883 22.5377 17.0411 22.601 17.2005 22.601C17.3598 22.601 17.5126 22.5377 17.6253 22.425L19.6005 20.4486L21.5757 22.425C21.6883 22.5377 21.8411 22.601 22.0005 22.601C22.1598 22.601 22.3126 22.5377 22.4253 22.425C22.5379 22.3123 22.6012 22.1595 22.6012 22.0002C22.6012 21.8409 22.5379 21.6881 22.4253 21.5754L20.4489 19.6002L22.4253 17.625C22.5379 17.5123 22.6012 17.3595 22.6012 17.2002C22.6012 17.0409 22.5379 16.8881 22.4253 16.7754C22.3126 16.6627 22.1598 16.5994 22.0005 16.5994C21.8411 16.5994 21.6883 16.6627 21.5757 16.7754L19.6005 18.7518L17.6265 16.7754ZM19.6005 26.8002C21.51 26.8002 23.3414 26.0416 24.6916 24.6914C26.0419 23.3411 26.8005 21.5098 26.8005 19.6002C26.8005 17.6906 26.0419 15.8593 24.6916 14.509C23.3414 13.1588 21.51 12.4002 19.6005 12.4002C17.6909 12.4002 15.8596 13.1588 14.5093 14.509C13.159 15.8593 12.4005 17.6906 12.4005 19.6002C12.4005 21.5098 13.159 23.3411 14.5093 24.6914C15.8596 26.0416 17.6909 26.8002 19.6005 26.8002ZM19.6005 25.6002C18.0092 25.6002 16.483 24.9681 15.3578 23.8428C14.2326 22.7176 13.6005 21.1915 13.6005 19.6002C13.6005 18.0089 14.2326 16.4828 15.3578 15.3576C16.483 14.2323 18.0092 13.6002 19.6005 13.6002C21.1918 13.6002 22.7179 14.2323 23.8431 15.3576C24.9683 16.4828 25.6005 18.0089 25.6005 19.6002C25.6005 21.1915 24.9683 22.7176 23.8431 23.8428C22.7179 24.9681 21.1918 25.6002 19.6005 25.6002ZM15.2253 10.425C15.3379 10.3123 15.4012 10.1595 15.4012 10.0002C15.4012 9.84086 15.3379 9.68806 15.2253 9.5754C15.1126 9.46273 14.9598 9.39944 14.8005 9.39944C14.6411 9.39944 14.4883 9.46273 14.3757 9.5754L11.2005 12.7518L9.82526 11.3754C9.76948 11.3196 9.70325 11.2754 9.63036 11.2452C9.55747 11.215 9.47935 11.1994 9.40046 11.1994C9.32157 11.1994 9.24345 11.215 9.17056 11.2452C9.09767 11.2754 9.03145 11.3196 8.97566 11.3754C8.91988 11.4312 8.87562 11.4974 8.84543 11.5703C8.81524 11.6432 8.7997 11.7213 8.7997 11.8002C8.7997 11.8791 8.81524 11.9572 8.84543 12.0301C8.87562 12.103 8.91988 12.1692 8.97566 12.225L10.7757 14.025C10.8314 14.0809 10.8976 14.1252 10.9705 14.1554C11.0434 14.1857 11.1215 14.2013 11.2005 14.2013C11.2794 14.2013 11.3575 14.1857 11.4304 14.1554C11.5033 14.1252 11.5695 14.0809 11.6253 14.025L15.2253 10.425Z" fill="#233D4D"/>
</svg>
