<svg width="32" height="32" viewBox="0 0 32 32" fill="none" xmlns="http://www.w3.org/2000/svg">
<path d="M18.5 13C18.5 13.663 18.2366 14.2989 17.7678 14.7678C17.2989 15.2366 16.663 15.5 16 15.5C15.337 15.5 14.7011 15.2366 14.2322 14.7678C13.7634 14.2989 13.5 13.663 13.5 13C13.5 12.337 13.7634 11.7011 14.2322 11.2322C14.7011 10.7634 15.337 10.5 16 10.5C16.663 10.5 17.2989 10.7634 17.7678 11.2322C18.2366 11.7011 18.5 12.337 18.5 13Z" stroke="#233D4D" stroke-width="1.5" stroke-linecap="round" stroke-linejoin="round"/>
<path d="M22.0005 24C22.0005 25.105 19.3145 26 16.0005 26C12.6865 26 10.0005 25.105 10.0005 24M17.2575 21.494C16.9197 21.819 16.4692 22.0005 16.0005 22.0005C15.5318 22.0005 15.0813 21.819 14.7435 21.494C11.6545 18.501 7.51548 15.158 9.53348 10.304C10.6265 7.679 13.2465 6 16.0005 6C18.7545 6 21.3755 7.68 22.4675 10.304C24.4835 15.151 20.3545 18.511 17.2575 21.494Z" stroke="#233D4D" stroke-width="1.5" stroke-linecap="round" stroke-linejoin="round"/>
</svg>
