<svg width="32" height="32" viewBox="0 0 32 32" fill="none" xmlns="http://www.w3.org/2000/svg">
<path d="M23.95 25C21.8667 25 19.8083 24.546 17.775 23.638C15.7417 22.73 13.8917 21.4423 12.225 19.775C10.5583 18.1077 9.271 16.2577 8.363 14.225C7.455 12.1923 7.00067 10.134 7 8.05C7 7.75 7.1 7.5 7.3 7.3C7.5 7.1 7.75 7 8.05 7H12.1C12.3333 7 12.5417 7.07933 12.725 7.238C12.9083 7.39667 13.0167 7.584 13.05 7.8L13.7 11.3C13.7333 11.5667 13.725 11.7917 13.675 11.975C13.625 12.1583 13.5333 12.3167 13.4 12.45L10.975 14.9C11.3083 15.5167 11.704 16.1123 12.162 16.687C12.62 17.2617 13.1243 17.816 13.675 18.35C14.1917 18.8667 14.7333 19.346 15.3 19.788C15.8667 20.23 16.4667 20.634 17.1 21L19.45 18.65C19.6 18.5 19.796 18.3877 20.038 18.313C20.28 18.2383 20.5173 18.2173 20.75 18.25L24.2 18.95C24.4333 19.0167 24.625 19.1377 24.775 19.313C24.925 19.4883 25 19.684 25 19.9V23.95C25 24.25 24.9 24.5 24.7 24.7C24.5 24.9 24.25 25 23.95 25ZM10.025 13L11.675 11.35L11.25 9H9.025C9.10833 9.68333 9.225 10.3583 9.375 11.025C9.525 11.6917 9.74167 12.35 10.025 13ZM18.975 21.95C19.625 22.2333 20.2877 22.4583 20.963 22.625C21.6383 22.7917 22.3173 22.9 23 22.95V20.75L20.65 20.275L18.975 21.95Z" fill="#233D4D"/>
</svg>
