<svg width="155" height="219" viewBox="0 0 155 219" fill="none" xmlns="http://www.w3.org/2000/svg">
<path d="M41.3451 202.252V210.151C41.3451 210.151 25.2717 219.143 19.764 215.658C14.2563 212.174 28.5313 204.306 28.5313 204.306L28.9298 202.252H41.3451Z" fill="#252734"/>
<path d="M58.9416 112.392C58.9416 112.392 69.303 127.913 64.8172 152.356C60.3313 176.798 55.59 202.252 55.59 202.252H28.9713L23.8008 111.574L58.9416 112.392Z" fill="#90A8A3"/>
<path d="M39.7912 97.5656C40.7006 96.462 45.8404 95.7672 45.8404 95.7672H45.9119L75.1568 55.9668L83.6891 63.2933L51.1335 98.6283L51.1029 98.6385L49.4577 104.34L44.1544 103.124C44.1442 103.114 38.8817 98.6692 39.7912 97.5656Z" fill="#F1BAA4"/>
<path d="M91.17 213.84C91.5276 212.737 91.3846 210.489 91.0882 208.169C90.9145 206.841 90.6999 205.492 90.4956 204.327C90.4956 204.327 90.3832 149.945 92.0794 128.834H77.9781C78.2131 158.048 79.2554 191.411 79.5517 200.434C79.5415 200.567 79.5415 200.72 79.5415 200.894C79.5415 201.435 79.5824 202.13 79.6335 202.794C79.7152 203.959 79.8276 205.053 79.8072 205.196C79.7868 205.349 77.0074 206.544 73.8397 208.128C69.8137 210.151 65.1541 212.808 64.7863 214.729C64.1118 218.163 90.281 216.609 91.17 213.84Z" fill="#F1BAA4"/>
<path d="M91.1802 213.841C91.5378 212.737 91.3948 210.489 91.0985 208.17C86.9396 209.754 77.1606 211.797 75.3213 210.408C74.3915 209.703 74.0032 208.875 73.8397 208.129C69.8137 210.152 65.1541 212.809 64.7863 214.73C64.1118 218.163 90.281 216.61 91.1802 213.841Z" fill="#252734"/>
<path d="M92.9575 207.066C92.9677 207.025 92.9575 206.994 92.9473 206.953C92.9473 206.963 92.9575 206.994 92.9575 207.066Z" fill="#252734"/>
<path d="M99.4688 134.373C100.991 141.025 102.81 149.425 104.639 158.039C106.519 159.939 108.44 161.86 110.351 163.792C113.223 166.704 116.094 169.606 118.853 172.406C130.236 183.983 139.698 193.711 139.698 193.711L140.71 195.376C140.71 195.376 139.024 198.984 137.45 202.918C135.723 207.23 134.15 211.94 135.12 212.697C136.97 214.137 155.169 198.973 154.638 195.898C154.351 194.273 152.389 192.27 150.448 190.594C149.876 190.094 149.293 189.624 148.762 189.194C148.588 188.949 148.384 188.796 148.384 188.796L115.634 152.347L99.4688 134.373Z" fill="#F1BAA4"/>
<path d="M135.099 212.706C136.948 214.147 155.147 198.983 154.616 195.907C154.33 194.282 152.368 192.279 150.426 190.604C148.863 193.291 144.111 201.098 140.79 202.702C139.155 203.489 138.103 203.356 137.428 202.927C135.712 207.239 134.138 211.95 135.099 212.706Z" fill="#252734"/>
<path d="M109.175 80L79.8072 81.1853C79.8072 81.1853 74.9432 106.067 74.9432 128.833C74.9432 151.6 78.0803 201.7 78.0803 201.7H95.0631L94.5727 103.288L100.959 159.018C100.959 159.018 138.164 192.964 137.101 193.832C136.039 194.701 147.34 182.337 147.34 182.337L121.559 150.619C121.559 150.619 113.395 83.6173 109.175 80Z" fill="#A0BDFF"/>
<path d="M108.562 7.81792C109.788 8.3084 111.116 9.13609 111.229 10.4543C111.29 11.1082 111.024 11.752 111.045 12.406C111.127 14.4394 113.763 15.3999 114.458 17.3108C115.428 19.9573 112.291 22.4914 112.414 25.3015C112.465 26.6094 113.221 27.7641 113.732 28.9699C114.243 30.1756 114.458 31.7084 113.589 32.6791C113.293 33.0163 112.884 33.2411 112.598 33.5886C111.556 34.8352 112.445 36.6847 113.252 38.0948C114.059 39.505 114.642 41.5895 113.303 42.5092C112.925 42.7646 112.455 42.8668 112.118 43.1734C111.443 43.7762 111.566 44.8696 111.924 45.6973C112.281 46.525 112.823 47.3322 112.813 48.2314C112.792 49.4883 111.637 50.5203 110.391 50.7349C109.154 50.9495 107.877 50.5203 106.763 49.9379C105.343 49.1919 104.076 48.1701 103.034 46.9541C102.461 46.2797 101.93 45.5338 101.153 45.1046C99.6411 44.2769 97.8018 44.9411 96.1465 45.4112C94.4911 45.871 92.335 45.9323 91.446 44.4609C91.119 43.9295 91.0373 43.2755 90.7308 42.734C90.0563 41.5486 88.5236 41.1501 87.1543 41.2217C85.7953 41.2932 84.4465 41.7019 83.0874 41.6202C81.7284 41.5384 80.2467 40.7823 79.9708 39.4437C79.7767 38.4831 80.2569 37.4817 80.0424 36.5314C79.6541 34.825 77.2528 34.0586 77.0893 32.3113C76.936 30.7274 78.7446 29.6034 79.0512 28.04C79.4293 26.0985 77.406 24.4227 77.4367 22.4506C77.4673 20.3047 79.8789 18.7413 79.8891 16.5853C79.8891 15.9211 79.6541 15.2773 79.5417 14.6233C79.184 12.4673 80.3285 10.1477 82.2598 9.13609C82.8013 8.84998 83.4042 8.65583 83.8334 8.21644C84.845 7.20483 84.4669 5.45749 85.1515 4.20063C85.969 2.68832 87.982 2.38177 89.6987 2.40221C91.4154 2.43286 93.3262 2.55548 94.6444 1.4519C96.2282 0.12352 96.4632 -0.510016 98.4456 0.491381C99.7842 1.16579 100.939 1.30885 102.308 1.78911C103.923 2.35112 104.382 3.31164 105.036 4.76264C105.844 6.55085 106.784 7.09242 108.562 7.81792Z" fill="#252734"/>
<path d="M80.1444 41.5078C79.7459 42.2538 73.1449 55.0471 73.1857 55.7011C73.2266 56.3551 82.045 66.369 82.229 66.0931C82.4027 65.8377 80.1444 41.5078 80.1444 41.5078Z" fill="#A0BDFF"/>
<path d="M100.367 28.9082H93.2344V42.4577H100.367V28.9082Z" fill="#F1BAA4"/>
<path d="M84.3652 16.3806C84.4674 16.6361 84.028 22.5831 85.9491 27.1814C86.8381 29.2966 88.2278 31.1257 90.4043 31.9738C91.5181 32.403 92.826 32.5869 94.3792 32.4132C94.3792 32.4132 102.053 33.2613 105.19 24.4327C105.19 24.4327 108.409 24.4838 109.196 21.0913C109.983 17.6886 107.54 16.2989 105.711 18.036C105.711 18.036 104.536 7.66438 95.2375 7.8381C85.9389 8.01181 84.3652 16.3806 84.3652 16.3806Z" fill="#F1BAA4"/>
<path d="M101.193 18.1187C101.112 18.1187 101.03 18.088 100.958 18.0267C99.7832 17.0151 98.7307 17.5158 98.2709 17.7201C98.087 17.8121 97.8724 17.9041 97.668 17.7406C97.5147 17.6077 97.4943 17.3829 97.6272 17.2297C97.6885 17.1581 97.7804 17.107 97.8724 17.107C97.8928 17.0968 97.9235 17.0866 97.9541 17.0662C98.4344 16.8414 99.8956 16.1567 101.418 17.4749C101.571 17.6077 101.582 17.8325 101.459 17.9858C101.398 18.0778 101.296 18.1187 101.193 18.1187Z" fill="#252734"/>
<path d="M86.3573 19.4154C86.2858 19.4154 86.2041 19.395 86.1428 19.3439C85.9793 19.2213 85.9486 18.9964 86.061 18.8432C86.1121 18.7716 87.42 17.0345 89.7294 17.6681C89.9235 17.7192 90.0359 17.9235 89.9849 18.1177C89.9338 18.3118 89.7294 18.4242 89.5352 18.3731C87.6959 17.8622 86.6537 19.2621 86.6435 19.2723C86.5822 19.3643 86.4697 19.4154 86.3573 19.4154Z" fill="#252734"/>
<path d="M94.1535 27.0603C93.8571 27.0603 93.0805 26.9479 92.539 25.8545C91.9974 24.7816 92.9375 23.2795 93.336 22.646C93.3871 22.5642 93.428 22.5131 93.4484 22.4722C93.4893 22.3394 93.6119 22.2372 93.7549 22.2168C93.9491 22.1963 94.133 22.3394 94.1535 22.5438C94.1637 22.6868 94.1126 22.7788 93.9491 23.0343C93.6425 23.5247 92.8251 24.8225 93.1827 25.5377C93.6017 26.3859 94.1535 26.345 94.1739 26.345C94.368 26.3246 94.552 26.4676 94.5724 26.6618C94.5928 26.8559 94.4702 27.0398 94.2761 27.0603C94.2659 27.0501 94.225 27.0603 94.1535 27.0603Z" fill="#252734"/>
<path d="M94.766 29.7677C93.877 29.7677 92.9063 29.3283 92.7836 29.0524C92.7019 28.8685 92.7836 28.6539 92.9676 28.5721C93.1106 28.5108 93.2741 28.5415 93.3763 28.6539C93.5296 28.7561 94.4186 29.2159 95.2769 28.9707C95.8798 28.8072 96.3498 28.3167 96.6666 27.5197C96.7381 27.3357 96.9527 27.2438 97.1366 27.3153C97.3206 27.3868 97.4125 27.6014 97.341 27.7853C96.7075 29.3794 95.6243 29.7473 94.8273 29.7575C94.8069 29.7677 94.7864 29.7677 94.766 29.7677Z" fill="#252734"/>
<path d="M99.4915 22.368C100.21 22.2936 100.723 21.5598 100.637 20.729C100.551 19.8982 99.8985 19.285 99.1799 19.3594C98.4614 19.4338 97.9486 20.1676 98.0347 20.9984C98.1207 21.8292 98.7729 22.4424 99.4915 22.368Z" fill="#252734"/>
<path d="M99.6517 21.0202C99.9847 21.0202 100.255 20.7503 100.255 20.4173C100.255 20.0844 99.9847 19.8145 99.6517 19.8145C99.3187 19.8145 99.0488 20.0844 99.0488 20.4173C99.0488 20.7503 99.3187 21.0202 99.6517 21.0202Z" fill="#EEE8EB"/>
<path d="M88.7512 23.4813C89.4698 23.4069 89.9825 22.6731 89.8965 21.8423C89.8104 21.0115 89.1582 20.3983 88.4397 20.4727C87.7212 20.5471 87.2084 21.2809 87.2944 22.1117C87.3805 22.9425 88.0327 23.5557 88.7512 23.4813Z" fill="#252734"/>
<path d="M88.9212 22.1335C89.2542 22.1335 89.5241 21.8636 89.5241 21.5306C89.5241 21.1977 89.2542 20.9277 88.9212 20.9277C88.5883 20.9277 88.3184 21.1977 88.3184 21.5306C88.3184 21.8636 88.5883 22.1335 88.9212 22.1335Z" fill="#EEE8EB"/>
<path d="M79.1535 63.2428C79.1638 63.8661 79.1842 64.4792 79.2046 65.0923C79.4396 73.5735 79.8075 81.1862 79.8075 81.1862L86.7049 83.1072L97.3933 86.0808L99.2019 85.1509L109.175 80.0111C109.175 80.0111 110.166 73.175 111.025 65.2354V65.2149C112.118 55.0988 113.007 43.1944 111.392 41.3449C108.838 38.402 106.161 39.199 104.178 37.9115C103.923 37.748 103.688 37.5539 103.453 37.3087C101.43 35.1424 100.806 33.1191 100.806 33.1191C100.571 33.2622 95.9525 36.4401 92.3454 34.846C92.3454 34.846 93.357 38.167 90.1791 38.4531C89.2288 38.5349 88.0026 38.5655 86.7151 38.6779C84.232 38.8925 81.5344 39.4545 80.1652 41.4777C80.1549 41.488 80.1447 41.4982 80.1447 41.5186C79.8688 41.9273 79.6542 42.3974 79.501 42.9287C78.8674 45.187 78.9287 54.4141 79.1535 63.2428Z" fill="#B3CAFE"/>
<path d="M96.5034 40.9048C97.7398 40.9048 98.8741 40.6084 99.7528 40.1997C100.437 39.8727 101.204 39.3414 101.255 38.8305C101.265 38.6976 101.173 38.5852 101.051 38.575C100.918 38.5648 100.805 38.6567 100.795 38.7794C100.775 38.9531 100.427 39.372 99.5587 39.7808C97.8216 40.6084 95.0626 40.8946 92.508 39.2596C92.3956 39.1881 92.2526 39.2188 92.1811 39.3312C92.1095 39.4436 92.1402 39.5866 92.2526 39.6581C93.6627 40.5574 95.1546 40.9048 96.5034 40.9048Z" fill="#252734"/>
<path d="M106.027 19.2831C105.219 19.5487 104.514 18.6597 104.218 17.8729C103.922 17.0861 103.584 16.1154 102.757 15.9212C101.97 15.7475 101.234 16.4117 100.427 16.4117C98.8329 16.4117 98.2402 14.0104 96.687 13.663C95.2462 13.3462 93.6726 14.9709 92.4362 14.1739C92.1501 13.99 91.9559 13.7039 91.6698 13.5301C90.8115 12.9886 89.7079 13.5914 88.9109 14.2148C88.1138 14.8381 87.1124 15.5431 86.1826 15.1549C85.8249 15.0118 85.549 14.7257 85.1914 14.5928C84.5374 14.3476 83.8324 14.6644 83.209 14.9811C82.5653 13.806 82.9434 12.1711 84.0367 11.4047C84.5068 11.0777 85.079 10.8938 85.4877 10.4953C86.3869 9.62674 86.1724 8.12464 86.7139 6.99041C87.2146 5.93792 88.4204 5.27373 89.5751 5.41678C90.3006 5.50875 90.9954 5.87661 91.7107 5.76421C92.2727 5.67224 92.7325 5.29416 93.2434 5.03871C94.5412 4.37451 96.217 4.53801 97.3717 5.43722C97.8519 5.80508 98.2402 6.29556 98.7716 6.58167C99.8956 7.19477 101.408 6.78604 102.45 7.53198C103.656 8.39032 103.574 10.2909 104.627 11.3332C105.199 11.9054 106.078 12.1711 106.486 12.8659C107.089 13.8776 107.498 18.7926 106.027 19.2831Z" fill="#252734"/>
<path d="M79.8072 81.1853L74.9432 101.683L82.8931 100.304L89.4328 86.9791L94.5726 100.324L117.4 99.1389L109.175 80L79.8072 81.1853Z" fill="#B3CAFE"/>
<path d="M1.79094 219C1.045 219 0.339933 218.53 0.094693 217.774C-0.027927 217.416 -0.0279251 217.038 0.0742582 216.701C0.391026 213.696 0.380807 179.25 0.0538203 126.371C0.0333836 123.826 1.01435 121.425 2.81277 119.616C4.6112 117.808 7.00229 116.816 9.54665 116.816C14.7887 116.816 19.0395 121.077 19.0395 126.309V135.935C19.0395 136.926 18.2425 137.723 17.2513 137.723C16.2601 137.723 15.4631 136.926 15.4631 135.935V126.309C15.4631 123.039 12.8063 120.393 9.54665 120.393C7.96281 120.393 6.47093 121.016 5.34692 122.14C4.2229 123.264 3.62002 124.766 3.63024 126.35C3.70177 138.071 3.8346 160.673 3.86526 180.426C3.8857 191.431 3.87548 200.116 3.84482 206.217C3.82439 209.711 3.79373 212.409 3.75285 214.248C3.73242 215.25 3.70176 215.985 3.67111 216.517C3.65067 216.813 3.64045 217.038 3.62002 217.212C3.48718 218.315 2.86386 218.744 2.36316 218.908C2.16902 218.969 1.97487 219 1.79094 219Z" fill="#252734"/>
<path d="M28.726 39.1978C28.726 39.1978 53.8733 34.6915 64.0099 61.719C74.1465 88.7465 58.9416 112.392 58.9416 112.392H23.8519C23.8519 112.392 18.5894 45.9521 28.726 39.1978Z" fill="#5A6E34"/>
<path d="M55.4369 202.252V210.151C55.4369 210.151 39.3635 219.143 33.8558 215.658C28.3481 212.174 42.6231 204.306 42.6231 204.306L43.0216 202.252H55.4369Z" fill="#252734"/>
<path d="M5.17243 116.786C5.17243 116.786 4.04842 117.961 5.14178 118.891C6.22492 119.821 6.63365 119.126 6.63365 119.126C6.63365 119.126 6.70518 121.711 9.23933 120.465C9.23933 120.465 9.14736 122.212 11.6611 121.129C14.1748 120.056 17.179 118.411 17.179 118.411C17.179 118.411 20.7043 119.892 22.2575 118.911C23.8209 117.92 24.4749 117.082 24.6997 117.123C24.9245 117.154 45.1057 112.106 47.3026 105.525C49.4996 98.9448 49.5609 86.3047 49.5609 86.3047C49.5609 86.3047 36.8697 87.7046 37.023 87.8477C37.1149 87.9294 36.7266 101.622 36.7266 101.622L20.1218 111.432C20.1218 111.432 12.9486 108.908 10.9049 110.001C9.71959 110.635 7.54308 112.28 5.91837 113.557C4.72282 114.497 3.82361 115.233 3.82361 115.233C3.82361 115.233 3.80317 115.304 3.79296 115.427C3.7623 115.877 3.80317 116.949 5.17243 116.786Z" fill="#F1BAA4"/>
<path d="M11.4354 112.392C11.4251 112.474 11.3843 112.545 11.3127 112.596C9.20776 114.17 6.01965 116.561 5.81528 116.735C5.69266 116.847 5.50873 116.847 5.37589 116.735C5.24305 116.612 5.23283 116.418 5.35545 116.285C5.38611 116.254 5.45764 116.173 10.9244 112.085C11.0675 111.983 11.2617 112.004 11.3741 112.147C11.4251 112.218 11.4456 112.31 11.4354 112.392Z" fill="#252734"/>
<path d="M12.4685 114.486C12.4583 114.558 12.4174 114.629 12.3561 114.68C10.3329 116.356 7.2776 118.9 7.11411 119.043C6.99149 119.156 6.79734 119.166 6.67472 119.054C6.54188 118.931 6.53166 118.737 6.65428 118.604C6.67472 118.584 6.72581 118.522 11.9474 114.2C12.0802 114.088 12.2846 114.108 12.397 114.241C12.4583 114.312 12.4787 114.404 12.4685 114.486Z" fill="#252734"/>
<path d="M13.4085 116.991C13.3983 117.063 13.3676 117.124 13.3063 117.175C12.029 118.35 10.0876 120.138 9.9956 120.23C9.87298 120.353 9.66861 120.353 9.54599 120.241C9.42337 120.118 9.41315 119.924 9.52555 119.791C9.58686 119.73 11.6408 117.829 12.867 116.705C12.9998 116.582 13.2042 116.593 13.3166 116.725C13.3983 116.797 13.4187 116.889 13.4085 116.991Z" fill="#252734"/>
<path d="M36.8589 33.354C36.8589 33.354 40.0471 25.1896 36.7976 19.314C33.5482 13.4385 28.95 16.9332 28.95 16.9332C28.95 16.9332 17.3113 13.5611 12.0897 15.7376C6.86814 17.9141 9.1264 23.1766 9.1264 23.1766L35.4079 35.3977L36.8589 33.354Z" fill="#EEE8EB"/>
<path d="M38.2905 36.9796C37.2176 40.9749 33.3959 40.7808 33.3959 40.7808C33.0383 41.68 32.65 42.4872 32.231 43.2127C27.8065 50.9072 20.2551 49.8036 20.2551 49.8036C13.1636 50.3247 10.4966 44.9907 9.51567 39.7794C8.64711 35.1505 9.11715 30.6238 9.0354 30.3785C9.0354 30.3785 11.2426 20.5178 22.2784 20.7018C33.3142 20.8755 34.2849 33.2294 34.2849 33.2294C36.5329 31.2266 39.3634 32.974 38.2905 36.9796Z" fill="#F1BAA4"/>
<path d="M28.9607 33.9359C28.8994 33.9359 28.8381 33.9052 28.787 33.8644C27.3973 32.5769 26.0893 33.1389 25.5273 33.3739C25.3127 33.4658 25.139 33.5374 24.9858 33.3943C24.8734 33.2921 24.8631 33.1184 24.9653 33.006C25.0164 32.9447 25.0981 32.9141 25.1799 32.9141C25.2106 32.9038 25.2514 32.8834 25.3127 32.863C25.9156 32.6075 27.5097 31.9229 29.1548 33.4556C29.2672 33.5578 29.2775 33.7315 29.1753 33.8439C29.114 33.9155 29.0322 33.9359 28.9607 33.9359Z" fill="#252734"/>
<path d="M11.6819 34.8357C11.6308 34.8357 11.5695 34.8153 11.5184 34.7744C11.3958 34.6825 11.3754 34.5088 11.4775 34.3861C11.498 34.3657 13.0614 32.4242 15.6262 33.2212C15.7692 33.2621 15.851 33.4154 15.8101 33.5687C15.7692 33.7117 15.616 33.7935 15.4627 33.7526C13.2555 33.0578 11.9169 34.7131 11.9067 34.7336C11.8556 34.8051 11.7636 34.846 11.6819 34.8357Z" fill="#252734"/>
<path d="M26.7967 38.9517C27.6356 38.8941 28.2619 38.0624 28.1955 37.0939C28.129 36.1255 27.3951 35.3871 26.5561 35.4446C25.7172 35.5022 25.091 36.3339 25.1574 37.3023C25.2238 38.2708 25.9578 39.0092 26.7967 38.9517Z" fill="#252734"/>
<path d="M27.0698 37.3897C27.4536 37.3897 27.7647 37.0786 27.7647 36.6949C27.7647 36.3111 27.4536 36 27.0698 36C26.6861 36 26.375 36.3111 26.375 36.6949C26.375 37.0786 26.6861 37.3897 27.0698 37.3897Z" fill="#EEE8EB"/>
<path d="M14.2889 39.811C15.1278 39.7535 15.7541 38.9218 15.6876 37.9533C15.6212 36.9849 14.8873 36.2465 14.0483 36.304C13.2094 36.3616 12.5831 37.1933 12.6496 38.1617C12.716 39.1302 13.45 39.8686 14.2889 39.811Z" fill="#252734"/>
<path d="M14.562 38.2471C14.9458 38.2471 15.2569 37.936 15.2569 37.5523C15.2569 37.1685 14.9458 36.8574 14.562 36.8574C14.1783 36.8574 13.8672 37.1685 13.8672 37.5523C13.8672 37.936 14.1783 38.2471 14.562 38.2471Z" fill="#EEE8EB"/>
<path d="M34.2849 33.22L33.3652 39.7597L26.6824 28.7545C26.6824 28.7545 33.2835 21.193 22.6871 18.4647C12.0907 15.7364 12.2031 28.7545 12.2031 28.7545L8.99452 33.0462C8.99452 33.0462 4.43714 26.8028 9.12736 23.1753C13.8176 19.5478 16.9853 16.1758 16.9853 16.1758L36.3081 20.6923L34.2849 33.22Z" fill="#EEE8EB"/>
<path d="M34.1204 86.5705C34.0182 86.5705 33.916 86.499 33.8751 86.3968C33.8649 86.3559 32.3833 81.8394 31.6169 76.2908C30.9016 71.1408 30.6666 64.0084 33.5992 59.2773C35.3568 56.4366 38.0442 54.7404 41.6104 54.209C45.0029 53.7083 47.8538 54.5462 50.0814 56.6921C51.8594 58.3985 53.2491 60.9531 54.23 64.2843C55.0066 66.9309 55.5176 70.0781 55.7526 73.6341C56.1613 79.6833 55.6197 84.8947 55.6095 84.9458C55.5993 85.0888 55.4665 85.191 55.3336 85.1706C55.1906 85.1603 55.0884 85.0275 55.1088 84.8845C55.119 84.8334 55.6504 79.6527 55.2519 73.6545C54.884 68.1468 53.6272 60.7896 49.734 57.0497C47.629 55.0265 44.9211 54.2397 41.6922 54.7097C38.2895 55.2104 35.7144 56.8351 34.0386 59.5328C31.1877 64.1412 31.4329 71.1408 32.1278 76.2091C32.8942 81.7168 34.3452 86.1822 34.3656 86.2231C34.4065 86.3559 34.335 86.499 34.2021 86.55C34.1715 86.5603 34.151 86.5705 34.1204 86.5705Z" fill="#252734"/>
<path d="M54.1999 54.4746C54.1999 54.4746 49.152 50.8675 47.3025 51.2558C45.453 51.6441 40.5584 53.7389 40.5584 53.7389C40.5584 53.7389 39.8533 55.0264 41.2533 55.2614C41.2533 55.2614 40.1088 55.9256 40.7423 56.9065C41.3861 57.8875 41.8561 57.4277 41.8561 57.4277C41.8561 57.4277 41.3146 59.4713 43.5933 59.0728C43.5933 59.0728 43.1232 60.4216 45.3304 60.1458C47.5478 59.8801 50.276 59.2772 50.276 59.2772C50.276 59.2772 52.6978 61.2391 54.1488 60.8202C55.5998 60.4012 56.3049 59.9005 56.4786 59.972C56.6523 60.0436 54.1999 54.4746 54.1999 54.4746Z" fill="#F1BAA4"/>
<path d="M47.1587 53.2394C47.1281 53.3008 47.077 53.3518 47.0157 53.3723C45.0026 54.1284 41.9576 55.2729 41.7634 55.3546C41.6408 55.416 41.4978 55.3751 41.4262 55.2627C41.3547 55.1401 41.3854 54.9766 41.5182 54.905C41.5488 54.8846 41.6306 54.8437 46.8419 52.8818C46.9748 52.8307 47.1281 52.9022 47.1791 53.0351C47.1894 53.1066 47.1894 53.1781 47.1587 53.2394Z" fill="#252734"/>
<path d="M47.4976 55.1189C47.467 55.17 47.4261 55.2211 47.3648 55.2517C45.3926 56.1101 42.4191 57.3976 42.2658 57.4793C42.1432 57.5406 41.9899 57.4997 41.9184 57.3873C41.8469 57.2647 41.8775 57.1012 42.0104 57.0297C42.0308 57.0195 42.0819 56.9888 47.1604 54.7817C47.2933 54.7204 47.4465 54.7817 47.5078 54.9145C47.5283 54.9758 47.5283 55.0576 47.4976 55.1189Z" fill="#252734"/>
<path d="M47.6593 57.2838C47.6388 57.3349 47.598 57.3757 47.5367 57.4064C46.2696 58.0399 44.3383 58.9902 44.2464 59.0413C44.1237 59.1129 43.9602 59.0618 43.8887 58.9391C43.8172 58.8165 43.8581 58.6632 43.9807 58.5815C44.042 58.5406 46.0857 57.529 47.3016 56.9261C47.4345 56.8648 47.5877 56.9159 47.6491 57.0487C47.6899 57.1407 47.6899 57.2225 47.6593 57.2838Z" fill="#252734"/>
<path d="M54.1992 54.4755C55.1087 54.1996 69.5472 65.8894 74.9424 66.1142C80.3275 66.339 92.1399 58.8081 92.1399 58.8081L100.366 65.2763C100.366 65.2763 86.1111 78.3149 74.9424 76.5778C63.784 74.8406 55.6502 60.2693 55.6502 60.2693L54.1992 54.4755Z" fill="#F1BAA4"/>
<path d="M112.096 44.102C112.096 44.102 115.295 52.5015 110.359 58.9084C105.506 65.1926 101.285 68.9223 100.897 68.8712C100.509 68.8202 89.9941 57.8865 89.9941 57.58C89.9941 57.2734 95.4201 48.874 98.9761 46.5442C102.031 44.5414 110.043 41.3942 112.096 44.102Z" fill="#A0BDFF"/>
<path d="M20.2335 44.1247C19.9372 44.1247 19.1606 44.0123 18.619 42.919C18.0775 41.846 19.0176 40.3439 19.4161 39.7104C19.4672 39.6287 19.508 39.5776 19.5285 39.5367C19.5693 39.4039 19.692 39.3017 19.835 39.2812C20.0292 39.2608 20.2131 39.4039 20.2335 39.6082C20.2438 39.7513 20.1927 39.8432 20.0292 40.0987C19.7226 40.5892 18.9052 41.8869 19.2628 42.6022C19.6817 43.4503 20.2335 43.4094 20.254 43.4094C20.4481 43.389 20.632 43.5321 20.6525 43.7262C20.6729 43.9204 20.5503 44.1043 20.3561 44.1247C20.3459 44.1145 20.3051 44.1247 20.2335 44.1247Z" fill="#252734"/>
<path d="M20.848 46.8321C19.959 46.8321 18.9883 46.3928 18.8657 46.1169C18.7839 45.9329 18.8657 45.7184 19.0496 45.6366C19.1927 45.5753 19.3562 45.606 19.4583 45.7184C19.6116 45.8205 20.5006 46.2804 21.3589 46.0351C21.9618 45.8716 22.4319 45.3811 22.7486 44.5841C22.8202 44.4002 23.0347 44.3082 23.2187 44.3797C23.4026 44.4513 23.4946 44.6659 23.423 44.8498C22.7895 46.4439 21.7064 46.8117 20.9093 46.8219C20.8889 46.8321 20.8685 46.8321 20.848 46.8321Z" fill="#252734"/>
<path d="M37.4427 34.8356C44.6875 35.5816 54.8956 38.9945 41.8775 46.832C28.8593 54.6694 29.4827 64.8162 23.4538 64.5301C17.425 64.244 12.8472 57.5612 13.4194 54.4651C13.9917 51.3689 13.8384 52.5134 22.4933 47.7925C31.1482 43.0716 33.8663 34.4678 37.4427 34.8356Z" fill="#F79825"/>
<path d="M19.5496 60.8726C19.5496 60.8726 10.9356 101.695 11.4158 101.674C11.8961 101.664 31.4131 98.6396 31.4131 98.6396L27.7652 59.0742L19.5496 60.8726Z" fill="#F79825"/>
</svg>
